<svg width="429" height="425" viewBox="0 0 429 425" fill="none" xmlns="http://www.w3.org/2000/svg">
<path d="M32.7143 241.048C41.8233 241.656 50.4659 242.165 59.0952 242.844C62.5668 243.117 64.2195 241.798 63.7399 238.319C62.8785 232.07 65.7881 227.669 69.9533 223.334C82.0709 210.721 93.9165 197.845 105.752 184.965C108.408 182.074 111.447 180.138 115.297 180.315C132.109 181.089 148.915 179.376 165.727 180.353C170.042 180.604 173.173 182.4 175.958 185.667C187.847 199.612 199.82 213.489 211.95 227.224C215.581 231.335 217.365 235.667 217.228 241.223C216.952 252.381 217.139 263.551 217.205 274.716C217.216 276.478 216.669 278.388 218.533 280.648C224.109 278.381 229.904 276.034 235.686 273.653C236.124 273.473 236.544 273.118 236.836 272.739C238.51 270.564 237.838 255.451 235.728 253.414C228.138 246.087 225.081 236.723 223.272 226.726C220.388 210.792 221.375 195.18 227.681 180.182C231.108 172.031 236.2 164.982 246.127 164.885C256.015 164.789 261.603 171.477 264.883 179.745C273.218 200.76 273.318 221.951 264.619 242.95C263.428 245.825 261.827 248.947 259.51 250.853C254.291 255.145 255.166 260.377 255.816 266.507C261.83 264.778 267.537 263.185 273.216 261.498C306.532 251.598 340.531 245.431 375.168 242.668C387.622 241.674 400.079 240.834 412.577 240.821C421.972 240.811 425.698 245.405 423.775 254.505C405.887 339.146 339.594 404.419 254.797 420.885C159.899 439.313 63.8269 391.14 21.7391 304.077C13.8677 287.794 7.98179 270.864 4.59202 253.093C3.13972 245.479 6.96867 240.835 14.7474 240.782C20.5783 240.743 26.4107 240.931 32.7143 241.048ZM260.167 372.33C266.273 378.47 272.517 384.482 278.422 390.811C281.023 393.599 283.419 393.885 286.775 392.516C295.583 388.922 304.145 384.801 312.326 380.012C316.943 377.31 321.912 374.812 325.51 370.693C324.346 368.183 322.437 367.043 320.771 365.73C301.115 350.244 280.384 336.357 258.646 323.96C241.704 314.298 224.353 305.481 206.25 298.192C200.855 296.02 198.395 292.45 198.582 286.279C198.989 272.8 198.577 259.299 198.788 245.811C198.852 241.689 197.682 238.576 194.922 235.503C186.802 226.463 178.993 217.144 171.019 207.972C169.863 206.641 168.979 204.862 166.356 204.595C156.793 215.746 147.063 227.093 137.332 238.439C136.151 239.816 136.127 241.49 136.126 243.165C136.118 255.49 136.198 267.816 136.052 280.139C136.014 283.305 137.244 285.078 140.078 286.193C146.384 288.673 152.152 292.113 157.997 295.568C194.705 317.265 228.878 342.273 260.167 372.33ZM255.286 401.896C257.189 401.459 259.233 401.389 260.838 399.805C259.672 396.664 257.079 394.742 254.897 392.54C221.842 359.178 184.595 331.398 143.616 308.483C131.565 301.744 119.266 296.553 105.367 294.989C94.6389 293.782 84.0311 291.437 73.4055 289.411C66.2803 288.053 63.9752 285.067 63.8371 277.687C63.7622 273.689 63.7387 269.689 63.766 265.691C63.7815 263.404 63.0754 261.694 60.5573 261.474C49.9484 260.548 39.3607 259.281 28.6864 259.333C27.121 259.341 25.6936 259.515 25.4351 261.577C24.8695 266.089 30.4204 276.584 34.5594 278.69C74.0993 298.809 110.67 323.284 143.889 352.761C160.74 367.714 176.603 383.604 191.378 400.602C193.512 403.059 195.427 405.608 199.394 405.85C217.946 406.982 236.321 406.064 255.286 401.896ZM326.993 334.735C321.943 330.524 321.363 327.381 324.47 320.138C331.301 304.208 338.788 288.597 347.16 273.413C348.646 270.718 350.39 268.069 350.865 264.331C341.403 264.415 332.706 266.789 323.855 267.87C318.996 268.464 316.199 270.857 314.069 275.131C309.539 284.22 304.656 293.137 299.785 302.051C297.774 305.731 294.555 307.757 290.253 306.889C286.294 306.09 283.916 303.403 282.991 299.481C282.368 296.842 283.657 294.631 284.612 292.322C286.739 287.181 290.276 282.635 291.894 275.796C273.004 279.34 256.13 285.816 238.128 292.333C240.744 293.826 242.25 294.784 243.837 295.577C277.658 312.476 309.179 332.938 338.46 356.832C341.7 359.476 343.472 357.635 345.635 355.665C368.047 335.256 385.109 311.102 396.26 282.89C399.17 275.527 402.322 268.165 403.274 259.352C394.145 259.904 385.394 259.829 376.709 261.182C374.445 261.535 373.544 263.502 372.582 265.228C367.234 274.832 361.815 284.399 356.653 294.102C350.626 305.43 345.552 317.217 340.353 328.941C337.591 335.168 333.731 336.956 326.993 334.735ZM50.6358 307.916C48.4624 306.876 46.4745 305.345 42.9087 304.877C61.5818 339.285 87.9199 364.613 121.26 382.828C134.393 390.004 148.002 396.175 163.357 397.904C130.671 362.011 93.2373 332.309 50.6358 307.916ZM98.898 275.523C104.943 276.151 110.842 278.063 117.517 278.018C117.517 267.793 117.531 258.009 117.507 248.226C117.502 245.796 115.891 245.287 113.821 245.196C104.67 244.794 95.5169 244.418 86.3772 243.834C83.3067 243.637 82.1799 244.658 82.2385 247.726C82.369 254.554 82.4423 261.392 82.1954 268.214C82.0692 271.699 83.6849 272.969 86.7329 273.43C90.5162 274.003 94.2818 274.693 98.898 275.523ZM135.431 198.93C130.941 198.931 126.448 199.027 121.961 198.898C119.067 198.815 116.936 199.837 115.011 202.007C109.386 208.349 103.567 214.519 97.9097 220.832C96.787 222.085 94.8745 222.982 95.202 225.592C103.006 225.994 110.777 226.309 118.534 226.834C121.698 227.048 123.829 225.815 125.806 223.458C131.575 216.584 137.528 209.865 143.37 203.051C144.177 202.11 145.467 201.255 144.722 199.568C142.036 198.411 139.179 199.098 135.431 198.93ZM250.174 229.556C254.273 212.663 252.271 190.607 246.149 185.22C238.102 196.143 238.304 228.317 246.529 236.774C248.687 235.15 249.047 232.587 250.174 229.556Z" fill="#56B43E"/>
<path d="M301.394 190.79C304.647 205.081 304.37 218.938 301.051 232.732C299.381 239.672 294.636 242.727 288.679 241.161C284.801 240.141 281.556 233.896 282.952 228.421C293.339 187.69 267.235 147.378 225.885 140.784C203.287 137.181 182.985 143.28 165.885 158.915C164.903 159.813 163.979 160.776 163.044 161.724C157.893 166.948 152.679 167.683 148.7 163.74C144.431 159.509 144.972 154.347 150.257 148.889C177.069 121.205 217.044 113.529 252.277 130.13C278.032 142.266 294.264 162.729 301.394 190.79Z" fill="#FFC222"/>
<path d="M308.428 29.467C312.741 24.4016 317.48 23.2752 321.7 26.0458C326.074 28.9176 326.996 34.113 323.787 39.6972C309.51 64.5345 295.183 89.3423 280.799 114.118C277.559 119.699 272.543 121.295 267.82 118.598C263.293 116.013 261.859 110.419 264.875 105.141C277.765 82.5813 290.8 60.1048 303.779 37.5954C305.276 34.9986 306.746 32.386 308.428 29.467Z" fill="#FFC222"/>
<path d="M414.172 145.997C412.046 148.871 409.128 149.744 406.33 150.766C380.412 160.229 354.486 169.668 328.56 179.108C327.623 179.449 326.685 179.816 325.716 180.03C320.457 181.188 315.887 178.586 314.348 173.602C312.977 169.16 315.041 164.67 319.888 162.76C328.083 159.531 336.401 156.614 344.678 153.595C363.73 146.647 382.795 139.736 401.838 132.765C406.074 131.214 410.084 131.103 413.329 134.639C416.365 137.948 416.654 141.745 414.172 145.997Z" fill="#FFC222"/>
<path d="M255.515 30.4131C251.632 52.6064 247.832 74.3764 244.018 96.1438C243.846 97.1244 243.588 98.0965 243.289 99.0469C241.783 103.828 237.5 106.707 233.111 105.918C228.178 105.031 224.875 101.14 225.616 95.8185C227.082 85.2947 229.015 74.834 230.858 64.3652C234.082 46.0445 237.358 27.7326 240.667 9.42683C241.866 2.79127 246.157 -0.817432 251.384 0.212292C257.051 1.32856 259.821 6.14772 258.636 12.8064C257.616 18.5329 256.609 24.2615 255.515 30.4131Z" fill="#FFC222"/>
<path d="M327.197 104.187C339.842 93.6077 352.181 83.2156 364.619 72.9433C369.477 68.9312 374.451 69.1382 377.936 73.1498C381.531 77.2897 381.064 82.7831 376.338 86.784C354.129 105.586 331.865 124.322 309.545 142.991C305.086 146.721 299.455 146.28 296.131 142.385C292.516 138.149 293.069 132.85 297.859 128.775C307.488 120.585 317.233 112.532 327.197 104.187Z" fill="#FFC222"/>
<path d="M175.416 42.4843C173.568 32.2308 171.793 22.4018 170.076 12.5627C168.984 6.30902 171.944 1.29748 177.272 0.218017C182.445 -0.829988 187.046 2.79251 188.218 9.31451C191.983 30.2723 195.59 51.2585 199.276 72.2306C200.542 79.4385 201.914 86.6283 203.136 93.8435C203.85 98.0577 203.076 101.834 199.245 104.423C196.185 106.491 193.025 106.586 189.819 104.799C186.776 103.102 185.504 100.164 184.942 97.0027C181.737 78.9809 178.645 60.9393 175.416 42.4843Z" fill="#FFC222"/>
<path d="M367 220.194C355.517 220.195 344.533 220.182 333.55 220.206C331.201 220.212 328.855 220.147 326.69 219.184C322.805 217.456 320.594 214.419 321.019 210.133C321.455 205.734 324.002 202.817 328.455 201.863C329.419 201.656 330.441 201.667 331.436 201.667C360.226 201.668 389.015 201.685 417.805 201.681C420.193 201.681 422.491 201.974 424.376 203.557C427.244 205.966 428.847 208.991 427.948 212.805C426.904 217.241 423.763 219.63 419.41 219.995C415.112 220.355 410.766 220.182 406.441 220.187C393.461 220.204 380.48 220.194 367 220.194Z" fill="#FFC222"/>
<path d="M101.739 128.28C85.2913 114.441 69.1091 100.838 52.947 87.2111C48.1874 83.1981 47.2609 77.7969 50.5347 73.6454C54.1176 69.102 59.389 68.8022 64.5822 73.1487C86.2797 91.309 107.919 109.539 129.574 127.749C132.427 130.148 135.171 132.729 134.938 136.841C134.734 140.444 132.744 143.217 129.494 144.642C126.28 146.051 122.947 145.826 120.088 143.481C114.04 138.518 108.035 133.502 101.739 128.28Z" fill="#FFC222"/>
<path d="M110.645 49.2893C108.553 45.6563 106.54 42.3937 104.758 39.0097C101.794 33.3831 103.006 28.11 107.668 25.6484C112.497 23.0988 117.616 24.8172 120.741 30.2096C130.672 47.347 140.55 64.5152 150.444 81.6742C154.767 89.1718 159.14 96.6418 163.377 104.188C166.827 110.331 165.816 115.789 160.91 118.563C155.858 121.42 151.039 119.46 147.447 113.209C135.258 91.998 123.037 70.8051 110.645 49.2893Z" fill="#FFC222"/>
<path d="M97.3482 176.415C94.5648 176.966 92.361 176.185 90.1604 175.384C66.994 166.955 43.8134 158.564 20.6704 150.072C14.2426 147.713 11.5995 142.969 13.5092 137.873C15.5932 132.311 20.4705 130.475 27.1221 132.889C50.4523 141.357 73.758 149.892 97.0976 158.333C101.25 159.834 104.037 162.372 104.294 166.915C104.562 171.663 102.26 174.832 97.3482 176.415Z" fill="#FFC222"/>
<path d="M32.0001 201.672C39.1598 201.678 45.8203 201.619 52.4788 201.708C58.6342 201.789 62.9597 205.549 63.0548 210.71C63.1497 215.864 58.947 220.039 52.8055 220.119C38.8227 220.299 24.8346 220.279 10.8514 220.112C4.64426 220.038 0.675417 216.083 0.697725 210.693C0.72043 205.207 4.59515 201.765 11.0218 201.696C17.8471 201.622 24.6739 201.675 32.0001 201.672Z" fill="#FFC222"/>
<path d="M176.333 280.557C176.086 283.792 175.033 286.141 172.64 287.741C171.606 288.432 170.985 288.9 171.777 290.464C172.851 292.587 171.299 293.95 169.356 294.466C167.186 295.043 164.953 294.279 164.545 292.111C164.086 289.673 162.561 288.575 160.999 287.1C156.422 282.778 156.384 260.753 160.829 256.269C163.577 253.498 166.972 252.868 170.479 254.209C173.983 255.548 176.196 258.257 176.273 262.172C176.391 268.15 176.33 274.131 176.333 280.557Z" fill="#56B43E"/>
</svg>
